<svg width="40" height="56" viewBox="0 0 40 56" fill="none" xmlns="http://www.w3.org/2000/svg">
<path d="M1.5 3C1.5 2.17157 2.17157 1.5 3 1.5H37C37.8284 1.5 38.5 2.17157 38.5 3V49.5317C38.5 50.8087 37.006 51.5017 36.0311 50.6768L22.0989 38.888C21.1845 38.1143 19.8497 38.0979 18.9166 38.849L3.94052 50.9028C2.95909 51.6928 1.5 50.9942 1.5 49.7343V3Z" stroke="#F9F9F9" stroke-width="3"/>
<path d="M26.1809 10.3155L24.2417 6.22215C23.5714 4.79055 22.2133 3.7447 20.5776 3.53L20.3509 3.50023H20.1221H19.9984C18.1082 3.48105 16.4504 4.5918 15.6852 6.22938L15.6781 6.2444L15.6713 6.25949L13.8164 10.3289L9.56836 10.9804C8.51241 11.1298 7.5543 11.6349 6.83627 12.3902C5.96796 13.292 5.5 14.4891 5.5 15.7135C5.5 16.9516 5.9785 18.1618 6.86558 19.067L6.8668 19.0683L10.0615 22.325L9.27241 26.9218L9.26599 26.9592L9.26039 26.9967C9.11352 27.9795 9.26994 28.9894 9.71623 29.886L9.73357 29.9208L9.75168 29.9553C10.9637 32.2604 13.8553 33.225 16.2301 31.9079L20.024 29.8274L23.8274 31.9132L23.8379 31.9189L23.8484 31.9246C24.7672 32.4203 25.8273 32.6013 26.8665 32.4295L26.9419 32.417L27.0167 32.4012C29.5923 31.8589 31.1186 29.3844 30.7338 26.956L30.7303 26.9338L30.7265 26.9117L29.9374 22.3149L33.1321 19.0581L33.1403 19.0497L33.1485 19.0413C33.8642 18.3019 34.3141 17.3593 34.453 16.3613C34.6242 15.1448 34.3247 13.8953 33.5947 12.8835C32.8625 11.8686 31.7459 11.1653 30.4706 10.9734L26.1809 10.3155ZM26.6908 11.3919C26.6914 11.3932 26.6921 11.3946 26.6927 11.3959L26.6908 11.3919Z" stroke="#F9F9F9" stroke-width="7"/>
<line x1="17" y1="33" x2="22.442" y2="33" stroke="#F9F9F9" stroke-width="6"/>
<line x1="15.9835" y1="7.04294" x2="2.98354" y2="6.99995" stroke="#F9F9F9" stroke-width="10"/>
<line x1="38.9835" y1="7.04294" x2="25.9835" y2="6.99995" stroke="#F9F9F9" stroke-width="10"/>
<line x1="6.5" y1="19" x2="6.5" y2="41" stroke="#F9F9F9" stroke-width="7"/>
<line x1="34.5" y1="19" x2="34.5" y2="41" stroke="#F9F9F9" stroke-width="7"/>
<path d="M31.5351 48.6974C33.5499 50.5858 36.7141 50.4832 38.6024 48.4684C40.4908 46.4536 40.3883 43.2894 38.3734 41.401L31.5351 48.6974ZM18.6265 36.5991L31.5351 48.6974L38.3734 41.401L25.4648 29.3027L18.6265 36.5991Z" fill="#F9F9F9"/>
<path d="M1.57048 41.4963C-0.439002 43.3903 -0.532578 46.5548 1.36148 48.5642C3.25553 50.5737 6.41997 50.6673 8.42945 48.7733L1.57048 41.4963ZM14.4448 29.3615L1.57048 41.4963L8.42945 48.7733L21.3038 36.6385L14.4448 29.3615Z" fill="#F9F9F9"/>
</svg>
