<svg width="40" height="56" viewBox="0 0 40 56" fill="none" xmlns="http://www.w3.org/2000/svg">
<path d="M1.5 3C1.5 2.17157 2.17157 1.5 3 1.5H37C37.8284 1.5 38.5 2.17157 38.5 3V49.5317C38.5 50.8087 37.006 51.5017 36.0311 50.6768L22.0989 38.888C21.1845 38.1143 19.8497 38.0979 18.9166 38.849L3.94052 50.9028C2.95909 51.6928 1.5 50.9942 1.5 49.7343V3Z" stroke="#F9F9F9" stroke-width="3"/>
<path d="M17.8556 13.5226L19.9699 8.88392L22.1701 13.528C22.1705 13.5289 22.1709 13.5298 22.1714 13.5308C22.554 14.3432 23.3128 14.9333 24.2217 15.0735L24.223 15.0737L29.2763 15.8487L25.5855 19.6113C24.9441 20.2498 24.6649 21.1618 24.8174 22.0417C24.8175 22.0422 24.8176 22.0427 24.8176 22.0432L25.7103 27.2432L21.3243 24.838L21.316 24.8334L21.3077 24.829C20.5038 24.4012 19.5442 24.4012 18.7402 24.829L18.7319 24.8334L18.7237 24.838L14.2854 27.2719L15.1813 22.0534C15.1813 22.0528 15.1814 22.0523 15.1815 22.0517C15.3339 21.1718 15.0548 20.2599 14.4134 19.6214L10.7251 15.8615L15.7956 15.0839L15.7968 15.0837C16.7068 14.9433 17.4662 14.352 17.8485 13.5381L17.8521 13.5304L17.8556 13.5226Z" fill="#F9F9F9" stroke="#F9F9F9" stroke-width="3"/>
</svg>
