<svg width="50" height="50" viewBox="0 0 50 50" fill="none" xmlns="http://www.w3.org/2000/svg">
<path d="M11.9895 42.2562L8.33329 16.6666H41.6666L38.0104 42.2562C37.8685 43.2491 37.3732 44.1574 36.6154 44.8145C35.8577 45.4716 34.8883 45.8334 33.8854 45.8333H16.1145C15.1116 45.8334 14.1422 45.4716 13.3845 44.8145C12.6268 44.1574 12.1315 43.2491 11.9895 42.2562ZM43.75 8.33329H33.3333V6.24996C33.3333 5.69742 33.1138 5.16752 32.7231 4.77682C32.3324 4.38612 31.8025 4.16663 31.25 4.16663H18.75C18.1974 4.16663 17.6675 4.38612 17.2768 4.77682C16.8861 5.16752 16.6666 5.69742 16.6666 6.24996V8.33329H6.24996C5.69742 8.33329 5.16752 8.55279 4.77682 8.94349C4.38612 9.33419 4.16663 9.86409 4.16663 10.4166C4.16663 10.9692 4.38612 11.4991 4.77682 11.8898C5.16752 12.2805 5.69742 12.5 6.24996 12.5H43.75C44.3025 12.5 44.8324 12.2805 45.2231 11.8898C45.6138 11.4991 45.8333 10.9692 45.8333 10.4166C45.8333 9.86409 45.6138 9.33419 45.2231 8.94349C44.8324 8.55279 44.3025 8.33329 43.75 8.33329Z" fill="black"/>
</svg>
