<svg width="60" height="39" viewBox="0 0 60 39" fill="none" xmlns="http://www.w3.org/2000/svg">
<g clip-path="url(#clip0_371_1226)">
<path fill-rule="evenodd" clip-rule="evenodd" d="M24.6928 8.3984C19.8881 5.03414 15.1371 4.29196 10.225 5.57614C11.2992 2.99313 12.9154 1.29879 14.8148 0.502893C17.5053 -0.625036 21.9095 0.175745 23.6429 2.58785C24.5316 3.81832 24.976 5.64449 24.6928 8.3984ZM40.7816 27.0117C40.6498 26.4648 40.9916 25.9179 41.5385 25.7861C42.0853 25.6543 42.6322 25.9961 42.764 26.5429C43.0277 27.6513 43.4818 28.5107 44.0873 29.1308C44.7074 29.7607 45.5033 30.166 46.4506 30.3515C47.0023 30.4589 47.3588 30.9912 47.2513 31.5429C47.1439 32.0947 46.6117 32.4511 46.0599 32.3437C44.7123 32.0752 43.5551 31.4843 42.642 30.5517C41.768 29.663 41.1332 28.4912 40.7816 27.0117ZM6.6117 27.0117C6.47986 26.4648 6.82166 25.9179 7.36853 25.7861C7.91541 25.6543 8.46229 25.9961 8.59412 26.5429C8.85779 27.6513 9.31189 28.5107 9.91736 29.1308C10.5375 29.7607 11.3334 30.166 12.2806 30.3515C12.8324 30.4589 13.1888 30.9912 13.0814 31.5429C12.974 32.0947 12.4418 32.4511 11.89 32.3437C10.5424 32.0752 9.38514 31.4843 8.47205 30.5517C7.59803 29.663 6.96326 28.4912 6.6117 27.0117ZM29.932 23.2959C31.2992 23.2959 32.4076 24.375 32.4076 25.7031C32.4076 27.0312 31.2992 28.1103 29.932 28.1103C28.5648 28.1103 27.4564 27.0312 27.4564 25.7031C27.4564 24.375 28.5648 23.2959 29.932 23.2959ZM13.0179 16.8798C17.9008 16.8798 21.8607 20.7275 21.8607 25.4785C21.8607 30.2246 17.9008 34.0771 13.0179 34.0771C8.13514 34.0771 4.17518 30.2295 4.17518 25.4785C4.17518 20.7275 8.13025 16.8798 13.0179 16.8798ZM47.1879 16.8798C52.0707 16.8798 56.0306 20.7275 56.0306 25.4785C56.0306 30.2246 52.0707 34.0771 47.1879 34.0771C42.3051 34.0771 38.3451 30.2295 38.3451 25.4785C38.3451 20.7275 42.3002 16.8798 47.1879 16.8798ZM35.308 8.3984C40.1127 5.03414 44.8637 4.29196 49.7709 5.57614C48.6967 2.99313 47.0804 1.29879 45.181 0.502893C42.4906 -0.625036 38.0863 0.175745 36.3578 2.58785C35.4691 3.81832 35.0248 5.64449 35.308 8.3984ZM52.5248 8.49606C50.8549 6.77731 48.1498 6.00094 44.4047 6.16696C40.1615 6.37692 35.6791 8.14938 34.2387 12.1679C33.0326 9.52145 26.9681 9.52145 25.767 12.1679C24.3265 8.14938 19.8441 6.37203 15.601 6.16696C11.8558 6.00094 9.15564 6.78219 7.48084 8.49606C5.12732 11.6504 0.469121 19.8925 0.0784959 23.9209C-1.5133 40.2685 21.934 44.3701 25.6937 27.4902C27.8275 31.2744 32.1732 31.2744 34.307 27.4902C38.0668 44.375 61.514 40.2685 59.9222 23.9209C59.5316 19.8925 54.8734 11.6504 52.5248 8.49606Z" fill="black"/>
</g>
<defs>
<clipPath id="clip0_371_1226">
<rect width="60" height="38.3301" fill="white"/>
</clipPath>
</defs>
</svg>
