<svg width="50" height="50" viewBox="0 0 50 50" fill="none" xmlns="http://www.w3.org/2000/svg">
<path fill-rule="evenodd" clip-rule="evenodd" d="M6.25 14.5833C6.25 13.4327 7.18275 12.5 8.33333 12.5H41.6667C42.8173 12.5 43.75 13.4327 43.75 14.5833C43.75 15.7339 42.8173 16.6667 41.6667 16.6667H8.33333C7.18275 16.6667 6.25 15.7339 6.25 14.5833ZM12.5 25C12.5 23.8494 13.4327 22.9167 14.5833 22.9167H35.4167C36.5673 22.9167 37.5 23.8494 37.5 25C37.5 26.1506 36.5673 27.0833 35.4167 27.0833H14.5833C13.4327 27.0833 12.5 26.1506 12.5 25ZM18.75 35.4167C18.75 34.266 19.6827 33.3333 20.8333 33.3333H29.1667C30.3173 33.3333 31.25 34.266 31.25 35.4167C31.25 36.5673 30.3173 37.5 29.1667 37.5H20.8333C19.6827 37.5 18.75 36.5673 18.75 35.4167Z" fill="black"/>
</svg>
