<svg width="25" height="25" viewBox="0 0 25 25" fill="none" xmlns="http://www.w3.org/2000/svg">
<g clip-path="url(#clip0_457_1238)">
<path d="M23.5414 1.21255C22.6899 0.396924 21.7516 -0.0163574 20.7492 -0.0163574C19.182 -0.0163574 18.0383 0.996143 17.7258 1.3063C17.2852 1.74224 2.26798 16.7657 2.26798 16.7657C2.16955 16.8641 2.09845 16.9875 2.06173 17.1219C1.72345 18.3735 0.0265785 23.9266 0.00939103 23.9829C-0.078109 24.2672 1.60187e-05 24.5774 0.209391 24.7868C0.360172 24.9368 0.560954 25.0172 0.766422 25.0172C0.847672 25.0172 0.928922 25.0047 1.00861 24.979C1.06564 24.9602 6.79767 23.1079 7.74142 22.8258C7.86564 22.7883 7.9797 22.7211 8.07189 22.6297C8.66798 22.0407 22.6742 8.18989 23.6039 7.22974C24.5656 6.23911 25.0438 5.2063 25.025 4.16333C25.0055 3.13286 24.5063 2.14067 23.5399 1.21333L23.5414 1.21255ZM17.4766 3.80474C17.8742 3.90083 18.8133 4.21646 19.7719 5.18364C20.7406 6.16099 21.0024 7.27817 21.0516 7.53286C17.9797 10.5891 10.9086 17.5852 8.12111 20.3422C7.86408 19.743 7.44767 19.0204 6.77814 18.3461C5.96095 17.5227 5.12892 17.0579 4.48752 16.7961C7.24611 14.0368 14.4508 6.82974 17.4758 3.80552L17.4766 3.80474ZM3.42736 18.1141C3.85705 18.2282 4.74845 18.5594 5.65705 19.475C6.35705 20.1813 6.68752 20.9594 6.83595 21.4344C5.75002 21.7836 3.37189 22.604 1.86173 23.0915C2.30939 21.618 3.06564 19.3243 3.42736 18.1141ZM22.4711 6.11255C22.4391 6.14536 22.386 6.19849 22.3227 6.26255C22.0758 5.62661 21.643 4.80942 20.8922 4.05317C20.1258 3.28052 19.3485 2.82505 18.7258 2.55552C18.7789 2.50317 18.8195 2.46177 18.836 2.44614C18.925 2.35786 19.7367 1.58208 20.7477 1.58208C21.3297 1.58208 21.9016 1.84771 22.4469 2.37114C23.0938 2.99224 23.4281 3.60474 23.4391 4.19224C23.45 4.79224 23.1235 5.43833 22.4703 6.11255H22.4711Z" fill="#F9F9F9"/>
</g>
<defs>
<clipPath id="clip0_457_1238">
<rect width="25" height="25" fill="white"/>
</clipPath>
</defs>
</svg>
