<svg width="25" height="25" viewBox="0 0 25 25" fill="none" xmlns="http://www.w3.org/2000/svg">
<g clip-path="url(#clip0_457_1240)">
<path d="M23.5414 1.21255C22.6898 0.396924 21.7515 -0.0163574 20.7492 -0.0163574C19.182 -0.0163574 18.0382 0.996143 17.7257 1.3063C17.2851 1.74224 2.26792 16.7657 2.26792 16.7657C2.16949 16.8641 2.09839 16.9875 2.06167 17.1219C1.72339 18.3735 0.0265175 23.9266 0.00932999 23.9829C-0.07817 24.2672 -4.50164e-05 24.5774 0.20933 24.7868C0.360111 24.9368 0.560893 25.0172 0.766361 25.0172C0.847611 25.0172 0.928861 25.0047 1.00855 24.979C1.06558 24.9602 6.79761 23.1079 7.74136 22.8258C7.86558 22.7883 7.97964 22.7211 8.07183 22.6297C8.66792 22.0407 22.6742 8.18989 23.6039 7.22974C24.5656 6.23911 25.0437 5.2063 25.025 4.16333C25.0054 3.13286 24.5062 2.14067 23.5398 1.21333L23.5414 1.21255ZM17.4765 3.80474C17.8742 3.90083 18.8132 4.21646 19.7718 5.18364C20.7406 6.16099 21.0023 7.27817 21.0515 7.53286C17.9796 10.5891 10.9085 17.5852 8.12105 20.3422C7.86402 19.743 7.44761 19.0204 6.77808 18.3461C5.96089 17.5227 5.12886 17.0579 4.48745 16.7961C7.24605 14.0368 14.4507 6.82974 17.4757 3.80552L17.4765 3.80474ZM3.4273 18.1141C3.85699 18.2282 4.74839 18.5594 5.65699 19.475C6.35699 20.1813 6.68746 20.9594 6.83589 21.4344C5.74996 21.7836 3.37183 22.604 1.86167 23.0915C2.30933 21.618 3.06558 19.3243 3.4273 18.1141ZM22.471 6.11255C22.439 6.14536 22.3859 6.19849 22.3226 6.26255C22.0757 5.62661 21.6429 4.80942 20.8921 4.05317C20.1257 3.28052 19.3484 2.82505 18.7257 2.55552C18.7789 2.50317 18.8195 2.46177 18.8359 2.44614C18.925 2.35786 19.7367 1.58208 20.7476 1.58208C21.3296 1.58208 21.9015 1.84771 22.4468 2.37114C23.0937 2.99224 23.4281 3.60474 23.439 4.19224C23.45 4.79224 23.1234 5.43833 22.4703 6.11255H22.471Z" fill="#00A693"/>
</g>
<defs>
<clipPath id="clip0_457_1240">
<rect width="25" height="25" fill="white"/>
</clipPath>
</defs>
</svg>
