<svg width="40" height="56" viewBox="0 0 40 56" fill="none" xmlns="http://www.w3.org/2000/svg">
<path d="M3 1.5H37C37.8284 1.5 38.5 2.17157 38.5 3V49.5317C38.5 50.8087 37.006 51.5017 36.0311 50.6768L22.0989 38.888C21.1845 38.1143 19.8497 38.0979 18.9166 38.849L3.94052 50.9028C2.95909 51.6928 1.5 50.9942 1.5 49.7343V3C1.5 2.17157 2.17157 1.5 3 1.5Z" fill="#00A693" stroke="#F9F9F9" stroke-width="3"/>
<path d="M20.1667 8.13125L20.1666 8.13127L20.1704 8.13924L22.6226 13.3154C22.6229 13.3161 22.6233 13.3167 22.6236 13.3174C22.9377 13.9846 23.5585 14.4653 24.2979 14.5793L24.2988 14.5795L29.7949 15.4224L29.7949 15.4224L29.8004 15.4232C29.85 15.4305 29.9042 15.4593 29.9453 15.5163C29.9873 15.5745 30.0085 15.6535 29.9969 15.7348L29.9961 15.7399C29.9867 15.809 29.9565 15.8681 29.9164 15.9102C29.9159 15.9107 29.9154 15.9112 29.915 15.9117L25.9402 19.9636C25.4152 20.485 25.1847 21.233 25.31 21.9564C25.3101 21.9568 25.3102 21.9572 25.3103 21.9576L26.2899 27.6647C26.3151 27.8364 26.2112 27.959 26.1098 27.9923C26.0688 27.9949 26.0267 27.9863 25.987 27.9652C25.9864 27.9649 25.9858 27.9646 25.9852 27.9643L21.0839 25.2764L21.0839 25.2763L21.0728 25.2704C20.4157 24.9207 19.6322 24.9207 18.9751 25.2704L18.9751 25.2703L18.9641 25.2764L14.0568 27.9675L14.0568 27.9675L14.0491 27.9718C13.9536 28.0253 13.8163 28.005 13.7399 27.8707C13.712 27.8097 13.7009 27.7394 13.7099 27.6691L14.6886 21.9678C14.6887 21.9673 14.6888 21.9669 14.6889 21.9664C14.8141 21.2431 14.5837 20.4952 14.0587 19.9738L10.0796 15.9174C10.0325 15.8693 10 15.7965 10 15.7135C10 15.6305 10.0325 15.5577 10.0796 15.5096L10.0881 15.5009L10.0964 15.492C10.129 15.4571 10.1666 15.4402 10.2005 15.4358L10.2121 15.4343L10.2236 15.4325L15.7198 14.5896L15.7206 14.5895C16.4607 14.4754 17.0821 13.9938 17.3959 13.3256L17.3959 13.3256L17.4007 13.3152L19.7633 8.13169C19.8091 8.03624 19.8904 7.99876 19.9552 8.00004L19.965 8.00023H19.9749H20.0282C20.0803 8.01789 20.1336 8.05975 20.1667 8.13125Z" fill="#00A693" stroke="#F9F9F9" stroke-width="2"/>
</svg>
