<svg width="44" height="46" viewBox="0 0 44 46" fill="none" xmlns="http://www.w3.org/2000/svg">
<path d="M16.0152 41.5187V35.0625C16.0152 33.4203 17.3539 32.086 19.0127 32.0749H25.0886C26.7553 32.0749 28.1063 33.4125 28.1063 35.0625V41.5388C28.1059 42.9331 29.23 44.0726 30.638 44.1053H34.6886C38.7266 44.1053 42 40.8646 42 36.867V18.5007C41.9784 16.9281 41.2326 15.4513 39.9747 14.4906L26.1215 3.44274C23.6946 1.51909 20.2446 1.51909 17.8177 3.44274L4.02532 14.5106C2.76265 15.4674 2.01555 16.9467 2 18.5208V36.867C2 40.8646 5.27342 44.1053 9.31139 44.1053H13.362C14.805 44.1053 15.9747 42.9472 15.9747 41.5187" stroke="#F9F9F9" stroke-width="3" stroke-linecap="round" stroke-linejoin="round"/>
</svg>
