<svg width="32" height="40" viewBox="0 0 32 40" fill="none" xmlns="http://www.w3.org/2000/svg">
<rect x="1.5" y="1.5" width="29" height="37" rx="3.5" fill="#00A693" stroke="#F9F9F9" stroke-width="3"/>
<line x1="30.5" y1="13" x2="30.5" y2="27" stroke="#00A693" stroke-width="3"/>
<line x1="30.5" y1="6.5" x2="30.5" y2="13.5" stroke="#F9F9F9" stroke-width="3" stroke-linecap="round"/>
<line x1="30.5" y1="26.5" x2="30.5" y2="33.5" stroke="#F9F9F9" stroke-width="3" stroke-linecap="round"/>
<path d="M30 21.5001C30.8284 21.5001 31.5 20.8285 31.5 20.0001C31.5 19.1717 30.8284 18.5001 30 18.5001V21.5001ZM8.93934 18.9395C8.35355 19.5252 8.35355 20.475 8.93934 21.0608L18.4853 30.6067C19.0711 31.1925 20.0208 31.1925 20.6066 30.6067C21.1924 30.0209 21.1924 29.0712 20.6066 28.4854L12.1213 20.0001L20.6066 11.5148C21.1924 10.9291 21.1924 9.97931 20.6066 9.39352C20.0208 8.80773 19.0711 8.80773 18.4853 9.39352L8.93934 18.9395ZM30 18.5001L10 18.5001V21.5001L30 21.5001V18.5001Z" fill="#F9F9F9"/>
</svg>
