<svg width="34" height="34" viewBox="0 0 34 34" fill="none" xmlns="http://www.w3.org/2000/svg">
<path d="M11.5455 32C13.0517 32 14.2728 30.7789 14.2728 29.2727C14.2728 27.7665 13.0517 26.5454 11.5455 26.5454C10.0393 26.5454 8.81824 27.7665 8.81824 29.2727C8.81824 30.7789 10.0393 32 11.5455 32Z" stroke="black" stroke-width="3" stroke-linecap="round" stroke-linejoin="round"/>
<path d="M27.909 32C29.4153 32 30.6363 30.7789 30.6363 29.2727C30.6363 27.7665 29.4153 26.5454 27.909 26.5454C26.4028 26.5454 25.1818 27.7665 25.1818 29.2727C25.1818 30.7789 26.4028 32 27.909 32Z" stroke="black" stroke-width="3" stroke-linecap="round" stroke-linejoin="round"/>
<path d="M8.36818 8.81818H32L29.7091 20.2591C29.5844 20.8869 29.2429 21.4509 28.7443 21.8522C28.2457 22.2536 27.6218 22.4668 26.9818 22.4545H12.5682C11.9023 22.4602 11.2574 22.222 10.755 21.7849C10.2526 21.3479 9.92745 20.7421 9.84091 20.0818L7.76818 4.37273C7.68223 3.71714 7.36103 3.1151 6.86436 2.67864C6.3677 2.24217 5.72938 2.001 5.06818 2L2 2" stroke="black" stroke-width="3" stroke-linecap="round" stroke-linejoin="round"/>
</svg>
