<svg width="40" height="40" viewBox="0 0 40 40" fill="none" xmlns="http://www.w3.org/2000/svg">
<path d="M20 17.3333V33.3333M20 17.3333C20 13.5996 20 11.7328 19.2733 10.3067C18.6342 9.05228 17.6143 8.03241 16.3599 7.39324C14.9338 6.66663 13.067 6.66663 9.33333 6.66663H7.66667C6.73325 6.66663 6.26653 6.66663 5.91002 6.84828C5.59642 7.00808 5.34145 7.26304 5.18165 7.57664C5 7.93316 5 8.39988 5 9.33329V27.3333C5 28.2668 5 28.7335 5.18165 29.09C5.34145 29.4036 5.59642 29.6585 5.91002 29.8183C6.26653 30 6.73325 30 7.66667 30H12.5778C13.4781 30 13.9283 30 14.3636 30.0776C14.7499 30.1465 15.1268 30.2605 15.4865 30.4176C15.8917 30.5945 16.2663 30.8441 17.0153 31.3436L20 33.3333M20 17.3333C20 13.5996 20 11.7328 20.7267 10.3067C21.3658 9.05228 22.3857 8.03241 23.64 7.39324C25.0662 6.66663 26.933 6.66663 30.6667 6.66663H32.3333C33.2668 6.66663 33.7335 6.66663 34.09 6.84828C34.4037 7.00808 34.6585 7.26304 34.8183 7.57664C35 7.93316 35 8.39988 35 9.33329V27.3333C35 28.2668 35 28.7335 34.8183 29.09C34.6585 29.4036 34.4037 29.6585 34.09 29.8183C33.7335 30 33.2668 30 32.3333 30H27.4222C26.5218 30 26.0717 30 25.6365 30.0776C25.25 30.1465 24.8732 30.2605 24.5135 30.4176C24.1083 30.5945 23.7337 30.8441 22.9847 31.3436L20 33.3333" stroke="black" stroke-width="3" stroke-linecap="round" stroke-linejoin="round"/>
</svg>
