<svg width="30" height="31" viewBox="0 0 30 31" fill="none" xmlns="http://www.w3.org/2000/svg">
<path d="M3.53736 21.3551C5.61564 23.4357 8.38327 24.6847 11.3188 24.8669C14.2544 25.049 17.1553 24.1516 19.4749 22.3439L27.4565 30.3231C27.7395 30.5964 28.1187 30.7476 28.5122 30.7442C28.9057 30.7408 29.2821 30.583 29.5604 30.3048C29.8387 30.0266 29.9965 29.6503 29.9999 29.2569C30.0034 28.8635 29.8521 28.4845 29.5787 28.2015L21.5971 20.2223C23.4857 17.7994 24.3785 14.7475 24.0936 11.6891C23.8087 8.63066 22.3676 5.79608 20.064 3.76342C17.7604 1.73076 14.768 0.653131 11.697 0.750307C8.62599 0.847482 5.70773 2.11214 3.53736 4.28637C2.41592 5.40691 1.5263 6.73737 0.919352 8.20173C0.3124 9.66608 0 11.2356 0 12.8207C0 14.4058 0.3124 15.9754 0.919352 17.4397C1.5263 18.9041 2.41592 20.2346 3.53736 21.3551ZM5.65957 6.41096C7.14327 4.92772 9.09551 4.00465 11.1837 3.79903C13.2718 3.59341 15.3667 4.11795 17.1113 5.28328C18.856 6.44861 20.1425 8.18264 20.7517 10.1899C21.3609 12.1972 21.2551 14.3536 20.4522 16.2916C19.6494 18.2296 18.1993 19.8294 16.3488 20.8184C14.4984 21.8074 12.3623 22.1244 10.3043 21.7154C8.24631 21.3064 6.39385 20.1967 5.06252 18.5753C3.73119 16.954 3.00337 14.9214 3.00305 12.8237C2.99894 11.6318 3.23164 10.4508 3.68766 9.34949C4.14369 8.24814 4.81395 7.24829 5.65957 6.40796V6.41096Z" fill="black" fill-opacity="0.8"/>
</svg>
