<svg width="50" height="54" viewBox="0 0 50 54" fill="none" xmlns="http://www.w3.org/2000/svg">
<path d="M45.8568 39.1423L45.8545 39.1499L45.8522 39.1574L45.1141 41.6178C44.751 42.8282 43.3704 43.4026 42.2559 42.8071L39.9084 41.5527C36.2358 39.5903 31.7299 41.8739 31.141 45.9961L30.6536 49.4078C30.5128 50.3931 29.669 51.125 28.6737 51.125H25H22.028C20.9788 51.125 20.1079 50.3141 20.0331 49.2675L19.8143 46.2038C19.5169 42.0402 15.1643 39.445 11.36 41.1631L7.12357 43.0763C5.98515 43.5904 4.65923 42.9468 4.35902 41.7342L3.74432 39.2515L3.74354 39.2484L2.62679 34.7687C2.42128 33.9444 2.75903 33.0801 3.46904 32.6135L4.8886 31.6807C8.67862 29.1901 8.44178 23.557 4.45608 21.3933L3.71057 20.9886C2.90133 20.5493 2.4966 19.6143 2.73017 18.7236L3.73752 14.8823L3.74174 14.8662L3.74569 14.8501L4.52256 11.6731C4.7929 10.5676 5.92998 9.91018 7.02294 10.2275L12.1418 11.7136C15.7905 12.7729 19.4926 10.2172 19.7956 6.43001L20.0027 3.84051C20.0859 2.80111 20.9536 2 21.9964 2H25H28.732C29.7146 2 30.5516 2.71377 30.7069 3.68402L31.0922 6.09239C31.7326 10.0946 36.0749 12.3236 39.7001 10.511L41.616 9.55309C42.6685 9.02681 43.9457 9.51858 44.3735 10.6149L45.6101 13.7835L47.0991 18.6228C47.385 19.5521 46.9612 20.5524 46.0947 20.9934L45.4443 21.3244C41.27 23.4488 41.0308 29.3234 45.0185 31.7801L46.3133 32.5778C47.0897 33.0561 47.4442 33.9991 47.1753 34.8704L45.8568 39.1423Z" stroke="#F9F9F9" stroke-width="4"/>
<circle cx="25" cy="26.875" r="8" stroke="#F9F9F9" stroke-width="4"/>
</svg>
