<svg width="60" height="11" viewBox="0 0 60 11" fill="none" xmlns="http://www.w3.org/2000/svg">
<path d="M5.96026 0L7.29843 3.77524L11.6288 3.77524L8.12546 6.10846L9.46362 9.8837L5.96026 7.55048L2.45691 9.8837L3.79507 6.10846L0.291716 3.77524L4.6221 3.77524L5.96026 0Z" fill="#200E32"/>
<path d="M17.9802 0L19.3183 3.77524L23.6487 3.77524L20.1454 6.10846L21.4835 9.8837L17.9802 7.55048L14.4768 9.8837L15.815 6.10846L12.3116 3.77524L16.642 3.77524L17.9802 0Z" fill="#200E32"/>
<path d="M30.0001 0L31.3382 3.77524L35.6686 3.77524L32.1653 6.10846L33.5034 9.8837L30.0001 7.55048L26.4967 9.8837L27.8349 6.10846L24.3315 3.77524L28.6619 3.77524L30.0001 0Z" fill="#200E32"/>
<path d="M42.0198 0L43.358 3.77524L47.6884 3.77524L44.185 6.10846L45.5232 9.8837L42.0198 7.55048L38.5165 9.8837L39.8546 6.10846L36.3513 3.77524L40.6817 3.77524L42.0198 0Z" fill="#200E32"/>
<path d="M54.0397 0L55.3779 3.77524L59.7083 3.77524L56.2049 6.10846L57.5431 9.8837L54.0397 7.55048L50.5364 9.8837L51.8745 6.10846L48.3712 3.77524L52.7016 3.77524L54.0397 0Z" fill="#200E32"/>
</svg>
