<svg width="90" height="17" viewBox="0 0 90 17" fill="none" xmlns="http://www.w3.org/2000/svg">
<path d="M8.9404 0L10.9476 5.66286H17.4432L12.1882 9.1627L14.1954 14.8256L8.9404 11.3257L3.68536 14.8256L5.69261 9.1627L0.437574 5.66286H6.93315L8.9404 0Z" fill="#F9F9F9"/>
<path d="M26.9702 0L28.9774 5.66286H35.473L30.218 9.1627L32.2252 14.8256L26.9702 11.3257L21.7151 14.8256L23.7224 9.1627L18.4674 5.66286H24.9629L26.9702 0Z" fill="#F9F9F9"/>
<path d="M45 0L47.0072 5.66286H53.5028L48.2478 9.1627L50.255 14.8256L45 11.3257L39.7449 14.8256L41.7522 9.1627L36.4971 5.66286H42.9927L45 0Z" fill="#F9F9F9"/>
<path d="M63.0298 0L65.037 5.66286H71.5326L66.2775 9.1627L68.2848 14.8256L63.0298 11.3257L57.7747 14.8256L59.782 9.1627L54.5269 5.66286H61.0225L63.0298 0Z" fill="#F9F9F9"/>
<path d="M81.0595 0L83.0668 5.66286H89.5624L84.3073 9.1627L86.3146 14.8256L81.0595 11.3257L75.8045 14.8256L77.8117 9.1627L72.5567 5.66286H79.0523L81.0595 0Z" fill="#F9F9F9"/>
</svg>
