<svg width="80" height="15" viewBox="0 0 80 15" fill="none" xmlns="http://www.w3.org/2000/svg">
<path d="M7.94702 0L9.73124 5.03365H15.5051L10.8339 8.14462L12.6182 13.1783L7.94702 10.0673L3.27588 13.1783L5.0601 8.14462L0.388955 5.03365H6.1628L7.94702 0Z" fill="#200E32"/>
<path d="M23.9734 0L25.7576 5.03365H31.5315L26.8603 8.14462L28.6445 13.1783L23.9734 10.0673L19.3022 13.1783L21.0865 8.14462L16.4153 5.03365H22.1892L23.9734 0Z" fill="#200E32"/>
<path d="M40 0L41.7842 5.03365H47.5581L42.8869 8.14462L44.6711 13.1783L40 10.0673L35.3289 13.1783L37.1131 8.14462L32.4419 5.03365H38.2158L40 0Z" fill="#200E32"/>
<path d="M56.0266 0L57.8108 5.03365H63.5847L58.9135 8.14462L60.6978 13.1783L56.0266 10.0673L51.3555 13.1783L53.1397 8.14462L48.4685 5.03365H54.2424L56.0266 0Z" fill="#200E32"/>
<path d="M72.053 0L73.8372 5.03365H79.611L74.9399 8.14462L76.7241 13.1783L72.053 10.0673L67.3818 13.1783L69.1661 8.14462L64.4949 5.03365H70.2688L72.053 0Z" fill="#200E32"/>
</svg>
