<svg width="80" height="80" viewBox="0 0 80 80" fill="none" xmlns="http://www.w3.org/2000/svg">
<g clip-path="url(#clip0_522_1639)">
<path d="M60 39H60.0322L60.0645 38.9989C64.8257 38.8454 69.4451 40.2348 72.8375 42.2932C74.5312 43.3208 75.859 44.4788 76.744 45.6271C77.5848 46.7181 77.957 47.7052 77.9965 48.5215C77.9818 48.537 77.9632 48.5555 77.9399 48.5773C77.7323 48.7703 77.324 49.0356 76.6405 49.3234C75.5583 49.779 74.0816 50.1704 72.3795 50.474C69.3532 45.5899 64.3459 41.7966 58.6697 39H60ZM78.0447 48.4633C78.0448 48.4633 78.0439 48.4649 78.0417 48.4681C78.0435 48.4649 78.0446 48.4633 78.0447 48.4633ZM20 38.6666H21.5963L21.6987 38.8203C15.8712 41.6333 10.7121 45.4844 7.62052 50.474C5.91837 50.1704 4.44164 49.779 3.35945 49.3234C2.67599 49.0356 2.26768 48.7703 2.06012 48.5773C2.03677 48.5555 2.01817 48.5369 2.00354 48.5215C2.043 47.7051 2.41524 46.7169 3.25823 45.619C4.14557 44.4633 5.47695 43.2932 7.17639 42.243C10.5801 40.1396 15.2178 38.6666 20 38.6666ZM1.95528 48.4633C1.95538 48.4633 1.95649 48.4649 1.95829 48.4681C1.95608 48.4649 1.95518 48.4633 1.95528 48.4633ZM51.3333 26.6666C51.3333 32.8954 46.2288 38 40 38C33.7712 38 28.6667 32.8954 28.6667 26.6666C28.6667 20.4379 33.7712 15.3333 40 15.3333C46.2288 15.3333 51.3333 20.4379 51.3333 26.6666ZM15.3333 60C15.3333 57.0422 17.8465 53.3996 22.6182 50.3522C27.269 47.382 33.5644 45.3333 40 45.3333C46.4356 45.3333 52.731 47.382 57.3818 50.3522C62.1535 53.3996 64.6667 57.0422 64.6667 60C64.6667 60.0826 64.6498 60.3051 64.2038 60.6953C63.7321 61.1081 62.9424 61.5522 61.7978 61.9815C59.5212 62.8352 56.3745 63.4376 53.0853 63.8488C49.8261 64.2562 46.5521 64.4613 44.0834 64.5642C42.8516 64.6155 41.826 64.6412 41.1101 64.6539C40.7523 64.6603 40.4722 64.6635 40.2828 64.6651C40.1881 64.6659 40.1161 64.6663 40.0684 64.6665L40.0154 64.6666L40.0029 64.6666L40.0002 64.6666H40.0002H39.9998H39.9998L39.9971 64.6666L39.9846 64.6666L39.9316 64.6665C39.8839 64.6663 39.8119 64.6659 39.7172 64.6651C39.5278 64.6635 39.2477 64.6603 38.8899 64.6539C38.174 64.6412 37.1484 64.6155 35.9166 64.5642C33.4479 64.4613 30.1739 64.2562 26.9147 63.8488C23.6255 63.4376 20.4788 62.8352 18.2022 61.9815C17.0576 61.5522 16.2678 61.1081 15.7962 60.6953C15.3502 60.3051 15.3333 60.0826 15.3333 60ZM61.6015 31.1866C61.8696 29.717 62 28.1841 62 26.6666C62 22.549 60.8235 18.6712 58.848 15.4054C59.2083 15.3573 59.589 15.3333 60 15.3333C64.5621 15.3333 68 18.7712 68 23.3333C68 27.3438 65.3432 30.4855 61.6015 31.1866ZM21.152 15.4054C19.1765 18.6712 18 22.549 18 26.6666C18 28.1841 18.1304 29.717 18.3985 31.1866C14.6568 30.4855 12 27.3438 12 23.3333C12 18.7712 15.4379 15.3333 20 15.3333C20.411 15.3333 20.7917 15.3573 21.152 15.4054Z" fill="black" stroke="#F9F9F9" stroke-width="4"/>
<line x1="66.0597" y1="28.4851" x2="63.0597" y2="16.4851" stroke="#F9F9F9" stroke-width="4"/>
<path d="M76.9185 50.6824C77.8476 51.2797 79.0851 51.0107 79.6824 50.0815C80.2797 49.1524 80.0107 47.9149 79.0815 47.3176L76.9185 50.6824ZM79.0815 47.3176L65.0815 38.3176L62.9185 41.6824L76.9185 50.6824L79.0815 47.3176Z" fill="#F9F9F9"/>
<path d="M0.940002 47.304C0.003329 47.8894 -0.281417 49.1233 0.304003 50.06C0.889424 50.9967 2.12332 51.2814 3.06 50.696L0.940002 47.304ZM3.06 50.696L19.06 40.696L16.94 37.304L0.940002 47.304L3.06 50.696Z" fill="#F9F9F9"/>
<line x1="14.0597" y1="28.5149" x2="17.0597" y2="16.5149" stroke="#F9F9F9" stroke-width="4"/>
</g>
<defs>
<clipPath id="clip0_522_1639">
<rect width="80" height="80" fill="white"/>
</clipPath>
</defs>
</svg>
