<svg width="80" height="80" viewBox="0 0 80 80" fill="none" xmlns="http://www.w3.org/2000/svg">
<g clip-path="url(#clip0_521_1631)">
<mask id="path-1-inside-1_521_1631" fill="white">
<path d="M80 48.6666C80 50.6666 76 52 71.3333 52.6666C68.3333 47 62.3333 42.6666 55.3333 39.6666C56 38.6666 56.6667 38 57.3333 37H60C70.3333 36.6666 80 43 80 48.6666ZM22.6667 36.6666H20C9.66667 36.6666 0 43 0 48.6666C0 50.6666 4 52 8.66667 52.6666C11.6667 47 17.6667 42.6666 24.6667 39.6666L22.6667 36.6666ZM40 40C47.3333 40 53.3333 34 53.3333 26.6666C53.3333 19.3333 47.3333 13.3333 40 13.3333C32.6667 13.3333 26.6667 19.3333 26.6667 26.6666C26.6667 34 32.6667 40 40 40ZM40 43.3333C26.3333 43.3333 13.3333 52 13.3333 60C13.3333 66.6666 40 66.6666 40 66.6666C40 66.6666 66.6667 66.6666 66.6667 60C66.6667 52 53.6667 43.3333 40 43.3333ZM59 33.3333H60C65.6667 33.3333 70 29 70 23.3333C70 17.6666 65.6667 13.3333 60 13.3333C58.3333 13.3333 57 13.6666 55.6667 14.3333C58.3333 17.6666 60 22 60 26.6666C60 29 59.6667 31.3333 59 33.3333ZM20 33.3333H21C20.3333 31.3333 20 29 20 26.6666C20 22 21.6667 17.6666 24.3333 14.3333C23 13.6666 21.6667 13.3333 20 13.3333C14.3333 13.3333 10 17.6666 10 23.3333C10 29 14.3333 33.3333 20 33.3333Z"/>
</mask>
<path d="M80 48.6666C80 50.6666 76 52 71.3333 52.6666C68.3333 47 62.3333 42.6666 55.3333 39.6666C56 38.6666 56.6667 38 57.3333 37H60C70.3333 36.6666 80 43 80 48.6666ZM22.6667 36.6666H20C9.66667 36.6666 0 43 0 48.6666C0 50.6666 4 52 8.66667 52.6666C11.6667 47 17.6667 42.6666 24.6667 39.6666L22.6667 36.6666ZM40 40C47.3333 40 53.3333 34 53.3333 26.6666C53.3333 19.3333 47.3333 13.3333 40 13.3333C32.6667 13.3333 26.6667 19.3333 26.6667 26.6666C26.6667 34 32.6667 40 40 40ZM40 43.3333C26.3333 43.3333 13.3333 52 13.3333 60C13.3333 66.6666 40 66.6666 40 66.6666C40 66.6666 66.6667 66.6666 66.6667 60C66.6667 52 53.6667 43.3333 40 43.3333ZM59 33.3333H60C65.6667 33.3333 70 29 70 23.3333C70 17.6666 65.6667 13.3333 60 13.3333C58.3333 13.3333 57 13.6666 55.6667 14.3333C58.3333 17.6666 60 22 60 26.6666C60 29 59.6667 31.3333 59 33.3333ZM20 33.3333H21C20.3333 31.3333 20 29 20 26.6666C20 22 21.6667 17.6666 24.3333 14.3333C23 13.6666 21.6667 13.3333 20 13.3333C14.3333 13.3333 10 17.6666 10 23.3333C10 29 14.3333 33.3333 20 33.3333Z" fill="#F9F9F9"/>
<path d="M71.3333 52.6666L68.682 54.0703L69.6691 55.9349L71.7576 55.6365L71.3333 52.6666ZM55.3333 39.6666L52.8372 38.0025L50.8366 41.0034L54.1516 42.4241L55.3333 39.6666ZM57.3333 37V34H55.7278L54.8372 35.3359L57.3333 37ZM60 37V40H60.0484L60.0967 39.9984L60 37ZM22.6667 36.6666L25.1628 35.0025L24.2722 33.6666H22.6667V36.6666ZM8.66667 52.6666L8.2424 55.6365L10.3309 55.9349L11.318 54.0703L8.66667 52.6666ZM24.6667 39.6666L25.8484 42.4241L29.1634 41.0034L27.1628 38.0025L24.6667 39.6666ZM59 33.3333L56.154 32.3846L54.8377 36.3333H59V33.3333ZM55.6667 14.3333L54.325 11.65L51.0058 13.3096L53.3241 16.2074L55.6667 14.3333ZM21 33.3333V36.3333H25.1623L23.8461 32.3846L21 33.3333ZM24.3333 14.3333L26.6759 16.2074L28.9942 13.3096L25.675 11.65L24.3333 14.3333ZM77 48.6666C77 48.0659 77.3248 47.7837 77.2588 47.8451C77.1714 47.9264 76.8818 48.1368 76.2525 48.4017C75.0112 48.9244 73.1335 49.379 70.9091 49.6968L71.7576 55.6365C74.1999 55.2876 76.6554 54.7422 78.5808 53.9316C79.5348 53.5299 80.5369 52.9903 81.3454 52.2382C82.1752 51.4663 83 50.2674 83 48.6666H77ZM73.9847 51.263C70.5277 44.7332 63.8122 40.0365 56.5151 36.9092L54.1516 42.4241C60.8545 45.2968 66.1389 49.2668 68.682 54.0703L73.9847 51.263ZM57.8295 41.3307C58.0809 40.9537 58.3363 40.6319 58.6759 40.2074C59.003 39.7986 59.4142 39.287 59.8295 38.6641L54.8372 35.3359C54.5858 35.713 54.3303 36.0347 53.9907 36.4592C53.6637 36.868 53.2525 37.3796 52.8372 38.0025L57.8295 41.3307ZM57.3333 40H60V34H57.3333V40ZM60.0967 39.9984C64.6552 39.8514 69.0843 41.1856 72.3188 43.1481C73.9323 44.1271 75.1583 45.2077 75.9519 46.2375C76.755 47.2795 77 48.11 77 48.6666H83C83 46.39 82.0367 44.3038 80.7043 42.5749C79.3625 40.8339 77.526 39.2895 75.4312 38.0185C71.2491 35.481 65.6782 33.8153 59.9033 34.0015L60.0967 39.9984ZM22.6667 33.6666H20V39.6666H22.6667V33.6666ZM20 33.6666C14.2567 33.6666 8.71325 35.4155 4.54791 37.9896C2.46165 39.2789 0.630597 40.8311 -0.707653 42.574C-2.03652 44.3048 -3 46.3898 -3 48.6666H3C3 48.1101 3.24485 47.2785 4.0514 46.228C4.84857 45.1897 6.08001 44.0961 7.70209 43.0937C10.9534 41.0844 15.41 39.6666 20 39.6666V33.6666ZM-3 48.6666C-3 50.2674 -2.17521 51.4663 -1.3454 52.2382C-0.536936 52.9903 0.465178 53.5299 1.41916 53.9316C3.34456 54.7422 5.80012 55.2876 8.2424 55.6365L9.09093 49.6968C6.86654 49.379 4.98878 48.9244 3.7475 48.4017C3.11815 48.1368 2.8286 47.9264 2.74123 47.8451C2.67521 47.7837 3 48.0659 3 48.6666H-3ZM11.318 54.0703C13.8611 49.2668 19.1455 45.2968 25.8484 42.4241L23.4849 36.9092C16.1878 40.0365 9.47225 44.7332 6.0153 51.263L11.318 54.0703ZM27.1628 38.0025L25.1628 35.0025L20.1705 38.3307L22.1705 41.3307L27.1628 38.0025ZM40 43C48.9902 43 56.3333 35.6568 56.3333 26.6666H50.3333C50.3333 32.3431 45.6765 37 40 37V43ZM56.3333 26.6666C56.3333 17.6765 48.9902 10.3333 40 10.3333V16.3333C45.6765 16.3333 50.3333 20.9902 50.3333 26.6666H56.3333ZM40 10.3333C31.0098 10.3333 23.6667 17.6765 23.6667 26.6666H29.6667C29.6667 20.9902 34.3235 16.3333 40 16.3333V10.3333ZM23.6667 26.6666C23.6667 35.6568 31.0098 43 40 43V37C34.3235 37 29.6667 32.3431 29.6667 26.6666H23.6667ZM40 40.3333C32.5701 40.3333 25.3465 42.677 19.9269 46.1383C14.6885 49.4838 10.3333 54.4366 10.3333 60H16.3333C16.3333 57.5633 18.4781 54.1828 23.1564 51.195C27.6535 48.3229 33.7632 46.3333 40 46.3333V40.3333ZM10.3333 60C10.3333 61.9594 11.3497 63.4485 12.5037 64.4582C13.6191 65.4342 15.0386 66.1351 16.4466 66.6631C19.2818 67.7263 22.8951 68.3852 26.2946 68.8101C29.7391 69.2407 33.1615 69.4538 35.7084 69.5599C36.9857 69.6131 38.0514 69.6398 38.8006 69.6531C39.1754 69.6598 39.4714 69.6632 39.6755 69.6649C39.7776 69.6658 39.8568 69.6662 39.9114 69.6664C39.9387 69.6665 39.9599 69.6666 39.9747 69.6666C39.9821 69.6666 39.988 69.6666 39.9922 69.6666C39.9943 69.6666 39.996 69.6666 39.9973 69.6666C39.998 69.6666 39.9986 69.6666 39.999 69.6666C39.9995 69.6666 40 69.6666 40 66.6666C40 63.6666 40.0003 63.6666 40.0004 63.6666C40.0003 63.6666 40.0004 63.6666 40.0003 63.6666C39.9999 63.6666 39.9992 63.6666 39.9981 63.6666C39.9959 63.6666 39.992 63.6666 39.9866 63.6666C39.9758 63.6666 39.9587 63.6666 39.9356 63.6665C39.8893 63.6663 39.8187 63.6659 39.7255 63.6651C39.5391 63.6636 39.2621 63.6604 38.9077 63.6541C38.1986 63.6414 37.181 63.616 35.9582 63.5651C33.5051 63.4629 30.2609 63.2592 27.0388 62.8565C23.7716 62.4481 20.7182 61.857 18.5534 61.0452C17.4614 60.6357 16.7976 60.2428 16.4547 59.9428C16.1503 59.6765 16.3333 59.7072 16.3333 60H10.3333ZM40 66.6666C40 69.6666 40.0005 69.6666 40.001 69.6666C40.0014 69.6666 40.002 69.6666 40.0027 69.6666C40.004 69.6666 40.0057 69.6666 40.0078 69.6666C40.012 69.6666 40.0179 69.6666 40.0253 69.6666C40.0401 69.6666 40.0613 69.6665 40.0886 69.6664C40.1432 69.6662 40.2224 69.6658 40.3245 69.6649C40.5286 69.6632 40.8246 69.6598 41.1994 69.6531C41.9486 69.6398 43.0143 69.6131 44.2916 69.5599C46.8385 69.4538 50.2609 69.2407 53.7054 68.8101C57.1049 68.3852 60.7182 67.7263 63.5534 66.6631C64.9614 66.1351 66.3809 65.4342 67.4963 64.4582C68.6503 63.4485 69.6667 61.9594 69.6667 60H63.6667C63.6667 59.7072 63.8497 59.6765 63.5453 59.9428C63.2024 60.2428 62.5386 60.6357 61.4466 61.0452C59.2818 61.857 56.2284 62.4481 52.9612 62.8565C49.7391 63.2592 46.4949 63.4629 44.0418 63.5651C42.819 63.616 41.8014 63.6414 41.0923 63.6541C40.7379 63.6604 40.4609 63.6636 40.2745 63.6651C40.1813 63.6659 40.1107 63.6663 40.0644 63.6665C40.0413 63.6666 40.0242 63.6666 40.0134 63.6666C40.008 63.6666 40.0041 63.6666 40.0019 63.6666C40.0008 63.6666 40.0001 63.6666 39.9997 63.6666C39.9996 63.6666 39.9997 63.6666 39.9996 63.6666C39.9997 63.6666 40 63.6666 40 66.6666ZM69.6667 60C69.6667 54.4366 65.3115 49.4838 60.0731 46.1383C54.6534 42.677 47.4299 40.3333 40 40.3333V46.3333C46.2367 46.3333 52.3465 48.3229 56.8436 51.195C61.5219 54.1828 63.6667 57.5633 63.6667 60H69.6667ZM59 36.3333H60V30.3333H59V36.3333ZM60 36.3333C67.3235 36.3333 73 30.6568 73 23.3333H67C67 27.3431 64.0098 30.3333 60 30.3333V36.3333ZM73 23.3333C73 16.0098 67.3235 10.3333 60 10.3333V16.3333C64.0098 16.3333 67 19.3235 67 23.3333H73ZM60 10.3333C57.8706 10.3333 56.0776 10.7737 54.325 11.65L57.0083 17.0166C57.9224 16.5596 58.7961 16.3333 60 16.3333V10.3333ZM53.3241 16.2074C55.5871 19.0362 57 22.7155 57 26.6666H63C63 21.2845 61.0796 16.2971 58.0093 12.4592L53.3241 16.2074ZM57 26.6666C57 28.7358 56.7017 30.7413 56.154 32.3846L61.8461 34.282C62.6316 31.9253 63 29.2641 63 26.6666H57ZM20 36.3333H21V30.3333H20V36.3333ZM23.8461 32.3846C23.2983 30.7413 23 28.7358 23 26.6666H17C17 29.2641 17.3684 31.9253 18.154 34.282L23.8461 32.3846ZM23 26.6666C23 22.7155 24.4129 19.0362 26.6759 16.2074L21.9907 12.4592C18.9204 16.2971 17 21.2845 17 26.6666H23ZM25.675 11.65C23.9224 10.7737 22.1294 10.3333 20 10.3333V16.3333C21.2039 16.3333 22.0776 16.5596 22.9917 17.0166L25.675 11.65ZM20 10.3333C12.6765 10.3333 7 16.0098 7 23.3333H13C13 19.3235 15.9902 16.3333 20 16.3333V10.3333ZM7 23.3333C7 30.6568 12.6765 36.3333 20 36.3333V30.3333C15.9902 30.3333 13 27.3431 13 23.3333H7Z" fill="#F9F9F9" mask="url(#path-1-inside-1_521_1631)"/>
</g>
<defs>
<clipPath id="clip0_521_1631">
<rect width="80" height="80" fill="white"/>
</clipPath>
</defs>
</svg>
