<svg width="56" height="53" viewBox="0 0 56 53" fill="none" xmlns="http://www.w3.org/2000/svg">
<path fill-rule="evenodd" clip-rule="evenodd" d="M29.8777 4.16139L35.9742 16.4123C36.2731 17.0281 36.8614 17.4585 37.5459 17.5623L51.1915 19.5337C51.7453 19.6092 52.2455 19.8996 52.5809 20.3404C52.9163 20.7811 53.0591 21.3356 52.9776 21.8807C52.909 22.3287 52.6912 22.7415 52.3584 23.0541L42.4755 32.6296C41.976 33.1015 41.7521 33.79 41.8801 34.4602L44.2616 47.955C44.4339 49.0669 43.6716 50.1103 42.5469 50.3019C42.0832 50.3735 41.6083 50.2996 41.1895 50.0907L29.0204 43.7305C28.4125 43.4007 27.6755 43.4007 27.0676 43.7305L14.8271 50.1376C13.8001 50.657 12.5403 50.2709 11.9932 49.2693C11.7799 48.8654 11.7047 48.4044 11.7789 47.955L14.1603 34.4602C14.2755 33.7909 14.0534 33.1082 13.5649 32.6296L3.61055 23.0541C2.79648 22.2408 2.79648 20.9338 3.61055 20.1205C3.94279 19.8173 4.35583 19.6138 4.80126 19.5337L18.4469 17.5623C19.1282 17.451 19.7133 17.0228 20.0186 16.4123L26.1151 4.16139C26.356 3.66465 26.7902 3.28483 27.3193 3.10808C27.8483 2.93134 28.4274 2.97264 28.9252 3.22262C29.3358 3.42787 29.6695 3.75669 29.8777 4.16139Z" fill="#F9F9F9" stroke="#F9F9F9" stroke-width="5" stroke-linecap="round" stroke-linejoin="round"/>
</svg>
