<svg width="50" height="50" viewBox="0 0 50 50" fill="none" xmlns="http://www.w3.org/2000/svg">
<g clip-path="url(#clip0_521_1598)">
<path d="M47.4734 49.6693C47.2051 49.6693 46.9339 49.6199 46.6744 49.5189L37.8322 46.0602C33.9635 48.4245 29.5421 49.6693 24.972 49.6693C11.354 49.6693 0.27478 38.5901 0.27478 24.972C0.27478 11.3539 11.354 0.274719 24.972 0.274719C38.5901 0.274719 49.6693 11.3539 49.6693 24.972C49.6693 29.5421 48.4246 33.9634 46.0602 37.8321L49.5189 46.6743C49.8361 47.486 49.6435 48.4097 49.0266 49.026C48.6068 49.4459 48.0453 49.6693 47.4734 49.6693ZM24.972 4.66534C13.7749 4.66534 4.6654 13.7748 4.6654 24.972C4.6654 36.1692 13.7749 45.2786 24.972 45.2786C29.0542 45.2786 32.9899 44.0723 36.3547 41.7903C36.9535 41.3836 37.7142 41.3002 38.3865 41.5625L43.6026 43.6031L41.562 38.387C41.2991 37.713 41.3842 36.9535 41.7898 36.3552C44.0724 32.9898 45.2787 29.0542 45.2787 24.972C45.2787 13.7748 36.1692 4.66534 24.972 4.66534Z" fill="#F9F9F9"/>
<circle cx="25.5" cy="24.5" r="21.5" fill="#F9F9F9"/>
<path d="M44.3738 45.1215L36.2365 42.8366L41.5661 37.1494L44.3738 45.1215Z" fill="#F9F9F9"/>
</g>
<defs>
<clipPath id="clip0_521_1598">
<rect width="50" height="50" fill="white"/>
</clipPath>
</defs>
</svg>
